<svg width="126" height="126" viewBox="0 0 126 126" fill="none" xmlns="http://www.w3.org/2000/svg">
<g clip-path="url(#clip0_102_10)" filter="url(#filter0_d_102_10)">
<path d="M75.486 59.2229C75.486 63.9691 71.6384 67.8166 66.8922 67.8166C66.3444 67.8166 65.8087 67.7647 65.2893 67.6667L64.1169 68.9858C64.0069 69.1095 63.872 69.2085 63.7211 69.2763C63.5701 69.344 63.4065 69.3791 63.241 69.3791H61.4235V71.3322C61.4235 71.9794 60.8988 72.5041 60.2516 72.5041H58.2985V74.4572C58.2985 75.1044 57.7738 75.6291 57.1266 75.6291H51.6578C51.0106 75.6291 50.486 75.1044 50.486 74.4572V70.6457C50.486 70.3349 50.6094 70.0369 50.8292 69.8171L58.7297 61.9166C58.4502 61.0692 58.2985 60.1638 58.2985 59.2228C58.2985 54.4766 62.146 50.6291 66.8922 50.6291C71.6524 50.629 75.486 54.4626 75.486 59.2229ZM66.8922 56.8791C66.8922 58.1735 67.9415 59.2228 69.236 59.2228C70.5304 59.2228 71.5797 58.1735 71.5797 56.8791C71.5797 55.5847 70.5304 54.5353 69.236 54.5353C67.9415 54.5353 66.8922 55.5847 66.8922 56.8791Z" fill="#7F265B"/>
</g>
<defs>
<filter id="filter0_d_102_10" x="0.485962" y="0.629089" width="125" height="125" filterUnits="userSpaceOnUse" color-interpolation-filters="sRGB">
<feFlood flood-opacity="0" result="BackgroundImageFix"/>
<feColorMatrix in="SourceAlpha" type="matrix" values="0 0 0 0 0 0 0 0 0 0 0 0 0 0 0 0 0 0 127 0" result="hardAlpha"/>
<feOffset/>
<feGaussianBlur stdDeviation="25"/>
<feComposite in2="hardAlpha" operator="out"/>
<feColorMatrix type="matrix" values="0 0 0 0 0.388235 0 0 0 0 0.117647 0 0 0 0 0.301961 0 0 0 1 0"/>
<feBlend mode="normal" in2="BackgroundImageFix" result="effect1_dropShadow_102_10"/>
<feBlend mode="normal" in="SourceGraphic" in2="effect1_dropShadow_102_10" result="shape"/>
</filter>
<clipPath id="clip0_102_10">
<rect width="25" height="25" fill="white" transform="translate(50.486 50.6291)"/>
</clipPath>
</defs>
</svg>
